<svg width="20" height="20" xmlns="http://www.w3.org/2000/svg" xmlns:xlink="http://www.w3.org/1999/xlink" overflow="hidden"><defs><clipPath id="clip0"><rect x="11" y="281" width="20" height="20"/></clipPath></defs><g clip-path="url(#clip0)" transform="translate(-11 -281)"><path d="M29.2917 284.958 15.9583 284.958C15.5 284.958 15.125 285.333 15.125 285.792L15.125 288.812C15.3542 288.75 15.625 288.708 15.875 288.708 16.0417 288.708 16.2083 288.729 16.375 288.75L16.375 286.208 28.875 286.208 28.875 294.125 21.8125 294.125 20.625 295.375 29.2917 295.375C29.75 295.375 30.125 295 30.125 294.542L30.125 285.792C30.125 285.333 29.75 284.958 29.2917 284.958" fill="#FFFFFF"/><path d="M15.8958 293.083C16.875 293.083 17.6667 292.292 17.6667 291.312 17.6667 290.333 16.875 289.542 15.8958 289.542 14.9167 289.542 14.125 290.333 14.125 291.312 14.1042 292.292 14.9167 293.083 15.8958 293.083" fill="#FFFFFF"/><path d="M22.7083 291.021C22.4375 290.604 21.8958 290.5 21.4792 290.75 21.3958 290.792 21.3542 290.875 21.3125 290.917L18.2708 294.083C17.9792 293.938 17.6667 293.812 17.3542 293.708 16.875 293.625 16.375 293.521 15.8958 293.521 15.4167 293.521 14.9167 293.604 14.4375 293.75 13.7292 293.938 13.1042 294.292 12.5833 294.729 12.4583 294.854 12.3542 295.042 12.3125 295.208L11.875 297.042 18.1042 297.042 18.1042 297.021 19.875 294.958 22.6042 292.083C22.8542 291.833 22.9375 291.354 22.7083 291.021" fill="#FFFFFF"/></g></svg>