<svg width="21" height="22" xmlns="http://www.w3.org/2000/svg" xmlns:xlink="http://www.w3.org/1999/xlink" overflow="hidden"><defs><clipPath id="clip0"><rect x="72" y="344" width="21" height="22"/></clipPath></defs><g clip-path="url(#clip0)" transform="translate(-72 -344)"><path d="M4.375 3.0625 3.0625 3.0625 3.0625 17.9375 17.9375 17.9375 17.9375 16.625 4.375 16.625Z" transform="matrix(1 0 0 1.04762 72 344)"/><path d="M5.6875 7.65625 8.09375 7.65625 8.09375 15.3125 5.6875 15.3125Z" transform="matrix(1 0 0 1.04762 72 344)"/><path d="M8.96875 3.0625 11.375 3.0625 11.375 15.3125 8.96875 15.3125Z" transform="matrix(1 0 0 1.04762 72 344)"/><path d="M12.25 7.65625 14.6562 7.65625 14.6562 15.3125 12.25 15.3125Z" transform="matrix(1 0 0 1.04762 72 344)"/><path d="M15.5312 11.375 17.9375 11.375 17.9375 15.3125 15.5312 15.3125Z" transform="matrix(1 0 0 1.04762 72 344)"/></g></svg>